<mxfile host="app.diagrams.net" modified="2023-10-24T13:13:46.365Z" agent="Mozilla/5.0 (Macintosh; Intel Mac OS X 10_15_7) AppleWebKit/605.1.15 (KHTML, like Gecko) Version/17.0 Safari/605.1.15" version="22.0.6" etag="v6qoMwFqPpo3NFaOhl9N" type="github">
  <diagram name="Page-1" id="LpERXTh7z-DrL-1YfzfX">
    <mxGraphModel>
      <root>
        <mxCell id="0" />
        <mxCell id="1" parent="0" />
      </root>
    </mxGraphModel>
  </diagram>
</mxfile>
